<svg xmlns="http://www.w3.org/2000/svg" viewBox="0 0 187 271.53"><defs><style>.cls-1{fill:#ededed;}.cls-2{fill:#d8d8d8;}.cls-3{fill:#596472;}.cls-4{opacity:0.24;}.cls-5{fill:#f4f4f4;}</style></defs><title>Asset 1</title><g id="Layer_2" data-name="Layer 2"><g id="Layer_1-2" data-name="Layer 1"><rect class="cls-1" x="-42.27" y="42.27" width="271.53" height="187" transform="translate(-42.27 229.27) rotate(-90)"/><path class="cls-2" d="M186,3.22v265.1L94.71,135.77,186,3.22M187,0,93.5,135.77,187,271.53V0Z"/><path class="cls-3" d="M0,0H187a0,0,0,0,1,0,0V19.43a20,20,0,0,1-20,20H0a0,0,0,0,1,0,0V0A0,0,0,0,1,0,0Z"/><path class="cls-3" d="M0,232.1H167a20,20,0,0,1,20,20v19.43a0,0,0,0,1,0,0H0a0,0,0,0,1,0,0V232.1A0,0,0,0,1,0,232.1Z"/><path class="cls-3" d="M0,116.05H150.83a5,5,0,0,1,5,5v29.43a5,5,0,0,1-5,5H0a0,0,0,0,1,0,0V116.05A0,0,0,0,1,0,116.05Z"/><path class="cls-4" d="M115.71,138.85,16.22,266.2,0,271.53V0L15.37,4.48,115.71,132.69A5,5,0,0,1,115.71,138.85Z"/><path class="cls-5" d="M105.91,139,17.18,264.85a5,5,0,0,1-2.53,1.86L0,271.53V0L13.69,4a5.07,5.07,0,0,1,2.69,1.92l89.53,126.63A5.62,5.62,0,0,1,105.91,139Z"/></g></g></svg>